<svg width="136" height="136" viewBox="0 0 136 136" fill="none" xmlns="http://www.w3.org/2000/svg">
<path d="M115.365 27.2373L106.696 124.357L67.7262 135.161L28.8638 124.372L20.2036 27.2373H115.365Z" fill="#E3E3E3"/>
<path d="M42.5992 0.839523H57.0281V6.87347H48.6331V12.9074H57.0281V18.9413H42.5992V0.839523Z" fill="#E3E3E3"/>
<path d="M59.914 0.839523H74.3429V6.08644H65.9479V7.13582H74.3429V19.2037H59.914V13.6945H68.3091V12.6451H59.914V0.839523Z" fill="#E3E3E3"/>
<path d="M77.2288 0.839523H91.6578V6.08644H83.2627V7.13582H91.6578V19.2037H77.2288V13.6945H85.6239V12.6451H77.2288V0.839523Z" fill="#E3E3E3"/>
<path d="M40.0569 71.2047L41.1247 83.1178H67.7842V71.2047H40.0569Z" fill="white"/>
<path d="M67.7843 47.0928H67.743H37.9114L38.9944 59.006H67.7843V47.0928Z" fill="white"/>
<path d="M67.7844 114.54V102.145L67.7322 102.159L54.4645 98.5767L53.6163 89.0753H47.1692H41.6572L43.3263 107.781L67.7297 114.555L67.7844 114.54Z" fill="white"/>
<path d="M82.4128 83.1185L81.03 98.5691L67.743 102.155V114.55L92.1659 107.781L92.345 105.768L95.1445 74.4044L95.4351 71.2054L97.5859 47.0928H67.743V59.006H84.5299L83.4459 71.2054H67.743V83.1185H82.4128Z" fill="white"/>
</svg>
