<svg width="136" height="136" viewBox="0 0 136 136" fill="none" xmlns="http://www.w3.org/2000/svg">
<g clip-path="url(#clip0)">
<path d="M28.7937 0H34.903V6.05625H40.5345V0H46.6437V18.328H40.5345V12.2187H34.9562V18.328H28.7937V0ZM54.7187 6.10937H49.3265V0H66.247V6.10937H60.828V18.328H54.7187V6.10937ZM68.9297 0H75.3312L79.2625 6.45468L83.1937 0H89.5953V18.328H83.486V9.24375L79.2095 15.8312L74.9328 9.24375V18.328H68.9297V0ZM92.6235 0H98.7328V12.2719H107.392V18.328H92.6235" fill="#F3CA7D"/>
<path d="M28.5812 125.109L19.8155 26.722H116.184L107.419 125.056L67.9203 136" fill="#F3CA7D"/>
<path d="M37.7188 46.8297H68V58.889H50.947L52.0625 71.2407H68V83.2735H41.0125L37.7188 46.8297ZM41.5438 89.3297H53.6563L54.5063 98.972L68 102.584V115.175L43.2438 108.269" fill="white"/>
<path d="M98.175 46.8297H67.947V58.889H97.0595L98.175 46.8297ZM95.9703 71.2407H67.947V83.3H82.822L81.414 98.972L67.947 102.584V115.122L92.65 108.269" fill="white"/>
</g>
<defs>
<clipPath id="clip0">
<rect width="136" height="136" fill="white"/>
</clipPath>
</defs>
</svg>
