<svg width="136" height="136" viewBox="0 0 136 136" fill="none" xmlns="http://www.w3.org/2000/svg">
<path d="M121.381 14.6193H14.6189V121.381H121.381V14.6193Z" fill="#E3E3E3"/>
<path d="M86.3359 98.0273C88.4864 101.538 91.2842 104.119 96.2326 104.119C100.39 104.119 103.045 102.042 103.045 99.171C103.045 95.7309 100.317 94.5125 95.7411 92.5111L93.2331 91.435C85.9937 88.3509 81.1842 84.4871 81.1842 76.3189C81.1842 68.7947 86.9171 63.0667 95.8768 63.0667C102.255 63.0667 106.841 65.2868 110.146 71.0994L102.333 76.1154C100.613 73.0313 98.7576 71.8163 95.8768 71.8163C92.9382 71.8163 91.0758 73.6804 91.0758 76.1154C91.0758 79.1251 92.9399 80.3437 97.2443 82.2077L99.7523 83.2821C108.276 86.9375 113.089 90.664 113.089 99.0423C113.089 108.075 105.994 113.023 96.4648 113.023C87.1476 113.023 81.1283 108.583 78.183 102.764L86.3359 98.0273ZM50.896 98.8965C52.4721 101.693 53.9057 104.057 57.3526 104.057C60.6485 104.057 62.728 102.767 62.728 97.7527V63.6397H72.7602V97.8882C72.7602 108.276 66.6696 113.004 57.7796 113.004C49.7469 113.004 45.0952 108.847 42.7295 103.841L50.896 98.8965Z" fill="white"/>
</svg>
